<?xml version="1.0" encoding="UTF-8"?>
<svg version="1.1" xmlns="http://www.w3.org/2000/svg" width="800" height="800">
<path d="M0 0 C264 0 528 0 800 0 C800 264 800 528 800 800 C536 800 272 800 0 800 C0 536 0 272 0 0 Z " fill="#7F7F7F" transform="translate(0,0)"/>
<path d="M0 0 C1.29834589 0.5889768 2.59769334 1.17574991 3.89794922 1.76049805 C7.36049167 3.32480703 10.80887588 4.91814973 14.25488281 6.51849365 C17.77731048 8.14919838 21.31090931 9.75529367 24.84375 11.36328125 C29.20099166 13.34862083 33.55674212 15.33704803 37.90722656 17.3371582 C48.48685428 22.19983024 59.10465478 26.97053532 69.75 31.6875 C70.50567261 32.02239441 71.26134521 32.35728882 72.03991699 32.70233154 C75.03507941 34.0295672 78.0302976 35.3566767 81.0256958 36.68338013 C87.94268002 39.74834748 94.84789485 42.83915924 101.75 45.9375 C104.09113845 46.9882977 106.43228444 48.0390786 108.7734375 49.08984375 C109.66801163 49.49138924 109.66801163 49.49138924 110.58065796 49.90104675 C118.84198601 53.60840823 127.10890982 57.30327251 135.375 61 C147.69408119 66.50967591 160.01075939 72.02464408 172.32421875 77.546875 C182.3384942 82.03718275 192.35649716 86.5191339 202.375 91 C214.69402735 96.50979652 227.01075922 102.024644 239.32421875 107.546875 C248.51832153 111.66942497 257.71551646 115.7850349 266.91348267 119.8989563 C269.36061838 120.99356706 271.80764737 122.08841605 274.25463867 123.18334961 C275.86116304 123.90218618 277.46768972 124.6210176 279.07421875 125.33984375 C279.86160934 125.69215561 280.64899994 126.04446747 281.46025085 126.40745544 C285.85813576 128.37496103 290.25688294 130.34051869 294.65652466 132.30409241 C302.23635578 135.68722459 309.81077292 139.08208092 317.375 142.5 C318.29716309 142.91636719 319.21932617 143.33273437 320.16943359 143.76171875 C322.57552169 144.85304671 324.97640322 145.95482297 327.375 147.0625 C328.03346924 147.36099854 328.69193848 147.65949707 329.37036133 147.96704102 C335.36957945 150.77118986 339.32090268 153.79771968 342.625 159.5625 C343.12515625 160.41972656 343.6253125 161.27695312 344.140625 162.16015625 C347.49849065 168.52522437 347.82271025 176.57416377 345.79672241 183.46759033 C345.02431505 185.49866605 344.18619835 187.48479413 343.30859375 189.47265625 C342.99502426 190.20711472 342.68145477 190.94157318 342.35838318 191.69828796 C341.38008929 193.97301774 340.38199152 196.2378414 339.375 198.5 C338.91894379 199.52486511 338.91894379 199.52486511 338.45367432 200.57043457 C336.64081649 204.62020766 334.79040988 208.65199573 332.92559814 212.67807007 C331.16951178 216.47146177 329.42639639 220.27080347 327.68359375 224.0703125 C327.32471069 224.8525267 326.96582764 225.63474091 326.59606934 226.44065857 C322.83178242 234.66055533 319.15963206 242.92059964 315.5 251.1875 C309.77119644 264.12329042 303.99935819 277.03879794 298.1875 289.9375 C297.80649139 290.78320557 297.42548279 291.62891113 297.03292847 292.50024414 C295.53070174 295.83459806 294.02843107 299.16893216 292.5259552 302.50317383 C287.64095217 313.34562011 282.78048819 324.19904568 277.91943359 335.05224609 C274.96647152 341.64436281 272.01108826 348.23539439 269.05609131 354.82659912 C266.1367193 361.33840787 263.21783031 367.85043153 260.30078125 374.36328125 C255.58183524 384.89726826 250.8593245 395.42955552 246.1171875 405.953125 C244.59887975 409.32288127 243.08064516 412.69267048 241.5625 416.0625 C240.98967285 417.33392853 240.98967285 417.33392853 240.40527344 418.63104248 C235.29589421 429.97460689 230.21857888 441.33177718 225.17706299 452.70565796 C219.86946448 464.67631736 214.55115496 476.64245838 209.16586304 488.57839966 C208.52389227 490.00333488 207.88387171 491.42915066 207.2460022 492.85592651 C196.98264795 515.7980869 196.98264795 515.7980869 184.6875 521.375 C173.49115545 524.84269085 163.95742826 521.80182381 153.75 517 C152.45824438 516.41395645 151.16548942 515.83011146 149.87182617 515.24829102 C146.4124326 513.68529538 142.96727339 512.0930754 139.52423096 510.4944458 C135.88708727 508.81154511 132.23795802 507.15504243 128.58984375 505.49609375 C123.37457217 503.12175566 118.16325045 500.73910163 112.95655823 498.3460083 C103.9978883 494.22924147 95.00422924 490.19744274 85.98730469 486.2097168 C75.9507513 481.76717465 65.94352128 477.26079775 55.9375 472.75 C43.14186628 466.98232313 30.33201322 461.24876244 17.5 455.5625 C3.53113774 449.37205634 -10.39576092 443.09203264 -24.31097412 436.78201294 C-36.39357868 431.30411254 -48.49502122 425.87215705 -60.625 420.5 C-73.65390121 414.72972581 -86.64748135 408.88490297 -99.625 403 C-112.29722621 397.25362019 -124.9821634 391.53853317 -137.70077515 385.89547729 C-139.96620292 384.89000034 -142.23087185 383.88283225 -144.49536133 382.87524414 C-150.64772344 380.13955204 -156.80303662 377.41470963 -162.98828125 374.75390625 C-185.430394 365.04590111 -185.430394 365.04590111 -190.625 352.5 C-195.09272878 337.70819527 -188.51156897 326.10794527 -182.26318359 312.97412109 C-179.49737871 307.10863622 -176.88597039 301.17464585 -174.25 295.25 C-173.15069025 292.79586128 -172.04814923 290.34318044 -170.9453125 287.890625 C-167.66713416 280.59587377 -164.39564292 273.29813289 -161.125 266 C-160.03649102 263.57159993 -158.94794938 261.1432145 -157.859375 258.71484375 C-157.32248047 257.51714355 -156.78558594 256.31944336 -156.23242188 255.08544922 C-154.66041135 251.57898711 -153.08806722 248.07267479 -151.515625 244.56640625 C-145.37852776 230.88067941 -139.24889134 217.19164082 -133.125 203.5 C-126.48597671 188.65664026 -119.83932556 173.81673224 -113.18554688 158.97998047 C-110.49805537 152.98694169 -107.81159101 146.99344249 -105.125 141 C-104.04167134 138.58333124 -102.95833801 136.16666457 -101.875 133.75 C-101.33875 132.55375 -100.8025 131.3575 -100.25 130.125 C-89.95833333 107.16666667 -79.66666667 84.20833333 -69.375 61.25 C-68.56953735 59.45284546 -68.56953735 59.45284546 -67.74780273 57.61938477 C-66.67250497 55.22111648 -65.59650451 52.82316312 -64.51977539 50.42553711 C-61.98566419 44.78038449 -59.45873136 39.132496 -56.95700073 33.47293091 C-55.77899195 30.80915609 -54.59692701 28.14719014 -53.41455078 25.48535156 C-52.85376594 24.21980961 -52.29495482 22.95339091 -51.73828125 21.68603516 C-47.02067192 10.94772075 -42.27625898 0.64456533 -30.9375 -4.4375 C-19.68100103 -7.73642004 -10.25078547 -4.82205742 0 0 Z " fill="#FEFEFE" transform="translate(394.625,230.5)"/>
<path d="M0 0 C0.98265722 -0.00698988 0.98265722 -0.00698988 1.9851661 -0.01412097 C4.17181427 -0.02603492 6.35783693 -0.01668998 8.54448986 -0.00736332 C10.13145629 -0.01153784 11.71841974 -0.01701601 13.30537766 -0.02368313 C17.65992157 -0.03814122 22.01427627 -0.03389186 26.36883056 -0.02651632 C31.06766563 -0.0217878 35.76645958 -0.03429178 40.46528149 -0.04453373 C49.66863083 -0.06173385 58.87191194 -0.06255914 68.07527319 -0.05732083 C75.55643542 -0.05327978 83.03757748 -0.05472191 90.51873875 -0.06006908 C92.11575637 -0.06119172 92.11575637 -0.06119172 93.74503699 -0.06233703 C95.90793394 -0.06386851 98.07083089 -0.06540685 100.23372784 -0.066952 C120.51967263 -0.08068169 140.80557886 -0.07523628 161.09152278 -0.06376678 C179.64652467 -0.05383619 198.20142681 -0.06677126 216.75641332 -0.09070098 C235.8109627 -0.11508968 254.86546562 -0.12470026 273.9200303 -0.11804825 C284.6167619 -0.11455523 295.3134168 -0.11679346 306.0101366 -0.13429928 C315.11708844 -0.14901846 324.2239096 -0.14966048 333.33085886 -0.13222837 C337.97616447 -0.12371327 342.62123658 -0.12158124 347.26653004 -0.13687992 C351.52228281 -0.15072199 355.77760197 -0.14597011 360.03332963 -0.12664068 C361.56962605 -0.12287885 363.10595716 -0.12580797 364.64222268 -0.13625234 C374.80515292 -0.20041061 382.82889476 0.79617143 391.40391064 6.56781673 C399.95841517 15.31674182 402.49726658 23.99117587 402.38096142 36.02118587 C402.38125347 36.83204647 402.38154552 37.64290707 402.38184643 38.4783392 C402.38046742 41.12416429 402.36497456 43.76969788 402.34922314 46.41547298 C402.34548791 48.26348879 402.34264335 50.1115066 402.3406477 51.95952511 C402.33305136 56.79772165 402.31343767 61.63579603 402.29123974 66.47394466 C402.27069469 71.42123418 402.26162754 76.36854363 402.25156689 81.31586361 C402.23018764 91.004068 402.19610055 100.69218217 402.15391064 110.38031673 C387.89618108 104.21648793 373.68341453 97.96493777 359.52891064 91.56781673 C356.91336226 90.38794188 354.29756034 89.20863032 351.68175793 88.02931881 C349.94830915 87.24774967 348.21494011 86.46600364 346.48165417 85.68407345 C338.98157971 82.30078454 331.4753811 78.93130724 323.96641064 75.56781673 C322.8131831 75.05114437 321.65995556 74.53447201 320.47178173 74.00214291 C318.18178281 72.97625576 315.89174421 71.9504572 313.60166454 70.92475033 C307.00954783 67.97178826 300.41851625 65.016405 293.82731152 62.06140804 C287.31550277 59.14203603 280.80347911 56.22314704 274.29062939 53.30609798 C262.92608295 48.21508344 251.56486669 43.11696464 240.21161938 38.00080013 C231.71618148 34.1727227 223.21818489 30.35035737 214.71824169 26.53229427 C213.00338047 25.76192509 211.28861868 24.99133453 209.57395458 24.2205267 C204.5733633 21.97278497 199.57075773 19.72964156 194.56507397 17.49326229 C193.01954684 16.80202141 191.47466683 16.10933157 189.93049145 15.41507626 C169.47520019 5.99143316 169.47520019 5.99143316 147.40391064 7.88031673 C132.37423745 14.21093018 126.73300251 26.4802273 120.59141064 40.69281673 C119.80728184 42.48197652 119.02313224 44.27112744 118.23794079 46.05982113 C117.69520694 47.29704548 117.15331321 48.53463868 116.61223888 49.77258968 C113.69178787 56.45359834 110.70536888 63.10471545 107.71641064 69.75531673 C106.89781892 71.57963827 106.07922764 73.40396 105.26079845 75.22835445 C104.43906107 77.06001721 103.61706453 78.89156349 102.79502392 80.72309017 C100.07922721 86.77456081 97.36683606 92.8275585 94.65391064 98.88031673 C93.57059133 101.29698969 92.48725799 103.71365635 91.40391064 106.13031673 C90.86766064 107.32656673 90.33141064 108.52281673 89.77891064 109.75531673 C19.90391064 265.63031673 19.90391064 265.63031673 18.27964306 269.25360775 C17.19379358 271.67593753 16.10801912 274.09830094 15.02231884 276.52069759 C11.82722784 283.64923896 8.6306962 290.77712475 5.42808056 297.90228939 C4.37008878 300.26311364 3.31686376 302.62607986 2.26841259 304.99115658 C-0.44166469 311.09323591 -3.2013811 317.15961266 -6.09152699 323.17882442 C-7.60160193 326.33603503 -9.08259877 329.50649406 -10.56102467 332.67862606 C-11.27822177 334.1989882 -12.00806498 335.71346598 -12.75200367 337.22092342 C-18.97599153 349.85295856 -21.80389831 363.11089758 -17.40858936 376.94281673 C-10.2715809 391.36814833 3.13077599 397.02359364 17.02891064 403.06781673 C19.02455487 403.93778085 21.01929644 404.8095825 23.01160717 405.68715572 C24.80286988 406.47598024 26.5972078 407.25781065 28.39170361 408.03925228 C31.15391064 409.38031673 31.15391064 409.38031673 33.15391064 411.38031673 C27.76455997 411.47984306 22.37575453 411.55209332 16.98569775 411.6000433 C15.15552471 411.62005048 13.32541472 411.64726524 11.49546337 411.68207455 C8.85150551 411.73107676 6.20839899 411.75339435 3.56406689 411.77094173 C2.35412815 411.80190945 2.35412815 411.80190945 1.11974621 411.83350277 C-7.8176048 411.83696397 -14.60797528 408.25195496 -21.05702686 402.23969173 C-27.10210517 395.95703393 -30.09511249 389.94223632 -30.09777164 381.04491615 C-30.10298714 379.78449774 -30.10820263 378.52407934 -30.11357617 377.22546643 C-30.10925245 375.83443023 -30.10473915 374.44339462 -30.10005665 373.05235958 C-30.10236168 371.5686658 -30.10553849 370.08497315 -30.10951114 368.60128289 C-30.11786223 364.52761686 -30.1137324 360.4540445 -30.1075387 356.38037813 C-30.10301639 351.98558089 -30.10999696 347.59079985 -30.11549854 343.19600582 C-30.12439721 334.58709657 -30.12246823 325.97822216 -30.11667326 317.36931153 C-30.11215776 310.37153062 -30.11154339 303.37375947 -30.11372089 296.37597752 C-30.11418059 294.88239962 -30.11418059 294.88239962 -30.11464958 293.35864842 C-30.11528903 291.33586921 -30.11593746 289.31308999 -30.11659476 287.29031078 C-30.12229967 268.31633901 -30.1157381 249.34238656 -30.10499403 230.36841796 C-30.0960625 214.09169419 -30.09760697 197.81499896 -30.10683155 181.53827572 C-30.11753845 162.63716405 -30.12174599 143.73606932 -30.11560702 124.83495504 C-30.11496993 122.81867111 -30.11434119 120.80238718 -30.11372089 118.78610325 C-30.11341234 117.79405989 -30.11310379 116.80201653 -30.11278589 115.77991125 C-30.1110599 108.79294599 -30.11397207 101.80599149 -30.11868 94.8190279 C-30.12429367 86.30054661 -30.12276231 77.78210218 -30.11211851 69.26362511 C-30.10686773 64.91825105 -30.10479491 60.5729384 -30.11141682 56.22756481 C-30.11739089 52.24703065 -30.11407711 48.26661462 -30.10346171 44.28609113 C-30.10123382 42.84870516 -30.10235023 41.41130914 -30.10721329 39.97392967 C-30.14367455 28.29825029 -29.69698838 18.58302617 -21.84608936 9.38031673 C-15.49238189 3.46479598 -8.74555882 0.00774914 0 0 Z " fill="#FEFEFE" transform="translate(213.84608936309814,210.61968326568604)"/>
<path d="M0 0 C1.36299901 -0.00577443 2.72599021 -0.01372436 4.08896542 -0.02363622 C7.80142122 -0.04435216 11.51322767 -0.03426503 15.22568464 -0.01870513 C19.24214363 -0.00733232 23.25849556 -0.02488354 27.27493286 -0.03860474 C35.13010337 -0.06077878 42.98503432 -0.05606209 50.84021401 -0.04154153 C57.2271446 -0.03022624 63.6140083 -0.02872827 70.00094604 -0.03416061 C70.9117247 -0.03492678 71.82250336 -0.03569294 72.76088136 -0.03648233 C74.6114042 -0.03808104 76.46192702 -0.0397021 78.31244981 -0.04134528 C95.64416339 -0.0555857 112.9757445 -0.0392369 130.30743635 -0.01234345 C145.16246202 0.00999378 160.0172923 0.00611317 174.87231445 -0.01693726 C192.144151 -0.04372548 209.4158716 -0.05421256 226.68772602 -0.03887594 C228.53124807 -0.03728328 230.37477015 -0.03571142 232.21829224 -0.03416061 C233.12522023 -0.03338924 234.03214822 -0.03261786 234.96655887 -0.03182311 C241.34206337 -0.02751517 247.71749401 -0.03477307 254.09298706 -0.04655838 C261.86801571 -0.06061554 269.64279214 -0.05671609 277.41779208 -0.03015466 C281.38092467 -0.01705952 285.3436375 -0.01178989 289.30676651 -0.02840042 C292.94143864 -0.04340333 296.57530569 -0.0349443 300.20990574 -0.00851266 C302.13309195 -0.00036496 304.05633494 -0.01651277 305.97946072 -0.03379881 C317.81841011 0.0985882 327.38770329 3.77694044 335.91430664 12.05679321 C341.31156138 18.39520626 344.09562258 24.88174482 344.85961914 33.13491821 C345.14025507 36.10886636 345.14025507 36.10886636 346.10961914 38.63491821 C348.44312846 40.19212227 350.62380087 40.82653747 353.31274414 41.60757446 C361.2414657 44.51994006 366.75347002 51.85252899 370.95336914 58.88491821 C373.77195241 65.58857571 374.40854594 72.43928661 374.4284668 79.64297485 C374.43851242 80.49284973 374.44855804 81.34272461 374.45890808 82.21835327 C374.48950257 84.99392087 374.50670848 87.7693931 374.52368164 90.54507446 C374.54241243 92.48278104 374.56198725 94.42047962 374.58236694 96.35816956 C374.63349229 101.4329963 374.67322242 106.50784943 374.71051025 111.58279419 C374.75067334 116.77145816 374.80170931 121.96001421 374.85180664 127.14859009 C374.94833363 137.31062344 375.03281212 147.47271801 375.10961914 157.63491821 C403.74834905 170.61127245 403.74834905 170.61127245 432.42211914 183.50991821 C433.55198242 184.01611694 434.6818457 184.52231567 435.84594727 185.04385376 C441.22026679 187.45016747 446.59631723 189.85255456 451.97462463 192.24993896 C454.61409627 193.42690414 457.25281578 194.60554985 459.89144897 195.78439331 C461.72620271 196.60326731 463.56205452 197.41967964 465.39794922 198.23599243 C492.64738748 210.41056788 492.64738748 210.41056788 499.14868164 226.15054321 C504.45096359 241.90872696 497.79370342 255.7854994 491.17211914 270.13491821 C490.59706462 271.3969075 490.02286578 272.659287 489.44946289 273.92202759 C488.26279406 276.53356115 487.0725394 279.14341324 485.87963867 281.75210571 C483.08848755 287.86422126 480.35244617 294.00099751 477.60961914 300.13491821 C476.52653378 302.55169602 475.44319988 304.96836247 474.35961914 307.38491821 C473.82336914 308.58116821 473.28711914 309.77741821 472.73461914 311.00991821 C428.85961911 408.88491828 428.85961911 408.88491828 427.2355957 412.50772095 C426.14898848 414.93170346 425.06240003 417.35569438 423.97583008 419.7796936 C421.31773881 425.70949596 418.65935405 431.63916632 416.00024414 437.56851196 C409.8631469 451.2542388 403.73351048 464.94327739 397.60961914 478.63491821 C391.48858813 492.32016397 385.36239344 506.00306643 379.22680664 519.68179321 C376.80467305 525.08231062 374.38689727 530.48475876 371.9724884 535.88873291 C370.07033797 540.14422937 368.15552603 544.39389735 366.23852539 548.64273071 C364.1762835 553.22196201 362.1676523 557.8192224 360.19946289 562.43960571 C349.48716032 587.27462016 349.48716032 587.27462016 336.09790039 592.96304321 C319.80440389 598.46890058 307.44024664 593.93452402 292.35961914 587.00991821 C291.10734276 586.44083699 289.85472796 585.87249997 288.60180664 585.30484009 C286.59065368 584.39342503 284.57978232 583.48142419 282.56994629 582.56710815 C274.91141907 579.08327182 267.22872867 575.6538101 259.54623413 572.22323608 C255.48455238 570.40907962 251.42405967 568.59226621 247.36352539 566.77554321 C246.57351639 566.4221286 245.78350739 566.06871399 244.96955872 565.70458984 C231.86568408 559.84208178 218.7677157 553.96639496 205.66918945 548.09194946 C190.81924577 541.43233055 175.9661483 534.77983181 161.10961914 528.13491821 C146.2662594 521.49589493 131.42635138 514.84924377 116.58959961 508.19546509 C110.59656083 505.50797359 104.60306677 502.82149776 98.60961914 500.13491821 C78.07368549 490.9296289 78.07368549 490.9296289 73.69848633 488.96011353 C71.32354093 487.89924758 68.9424902 486.85195725 66.5559082 485.8175354 C60.54186127 483.19867729 54.6952938 480.46320822 48.9683075 477.25726318 C22.77602811 462.67521985 -1.32563318 461.37502107 -31.03735352 462.69348145 C-43.0476046 463.09805601 -52.26595633 459.77692461 -61.08959961 451.59585571 C-69.15444269 443.15833042 -72.00851127 433.86960931 -72.02180862 422.31792831 C-72.02564977 421.06161 -72.02949091 419.80529169 -72.03344846 418.51090312 C-72.03266831 417.12448671 -72.03178955 415.73807035 -72.03082275 414.35165405 C-72.0334079 412.87279853 -72.03642148 411.39394371 -72.03982615 409.91508985 C-72.04788164 405.85478356 -72.04968491 401.79449497 -72.05042362 397.73418164 C-72.05227668 393.353682 -72.05982523 388.97319149 -72.06655884 384.59269714 C-72.08013184 375.01624139 -72.08616512 365.43978984 -72.0905695 355.86332607 C-72.09333337 349.88278299 -72.09757096 343.90224152 -72.10207367 337.92169952 C-72.11426443 321.36009701 -72.12456449 304.79849579 -72.12794876 288.23688889 C-72.12816833 287.17724279 -72.12838789 286.1175967 -72.12861411 285.02584012 C-72.12883239 283.96367698 -72.12905067 282.90151385 -72.12927556 281.80716395 C-72.12971902 279.65485938 -72.13016559 277.50255481 -72.13061523 275.35025024 C-72.13083666 274.28263565 -72.13105809 273.21502106 -72.13128623 272.11505452 C-72.13523456 254.8145141 -72.15269052 237.5140158 -72.17597476 220.21349165 C-72.19969271 202.44719677 -72.2121508 184.68092302 -72.21331668 166.91461205 C-72.21423313 156.94110587 -72.21997802 146.96765457 -72.23813629 136.99416351 C-72.25354316 128.50205475 -72.25865422 120.01001784 -72.25039819 111.51789775 C-72.24649393 107.18654311 -72.24741038 102.85533316 -72.26145554 98.52399635 C-72.2742076 94.55508763 -72.27298557 90.58643214 -72.26086482 86.6175237 C-72.2589101 85.18549988 -72.26197587 83.75345803 -72.27070919 82.3214595 C-72.34774734 68.83009463 -70.2531758 58.44142207 -60.81616211 48.43569946 C-56.05471721 43.94016422 -49.81698111 38.63491821 -42.89038086 38.63491821 C-42.95225586 37.50054321 -43.01413086 36.36616821 -43.07788086 35.19741821 C-43.02720319 25.60244596 -38.42731865 17.68949321 -32.14428711 10.68960571 C-22.9837259 1.8908962 -12.29855573 -0.11054575 0 0 Z M-57.89038086 54.63491821 C-63.44606526 62.30829879 -65.00900118 68.62025331 -65.02460194 78.09336662 C-65.02905978 79.35577608 -65.03351762 80.61818554 -65.03811055 81.91884983 C-65.03802128 83.30694319 -65.03783146 84.69503655 -65.03755188 86.08312988 C-65.04085427 87.56768614 -65.04458063 89.0522415 -65.04869336 90.53679574 C-65.058678 94.60817272 -65.0624244 98.67953496 -65.06508267 102.75092244 C-65.068996 107.14502029 -65.07857328 111.53910658 -65.08729553 115.93319702 C-65.10702609 126.53775066 -65.11711969 137.14230521 -65.12602332 147.7468726 C-65.13040991 152.74262726 -65.13577559 157.73838085 -65.14101219 162.73413467 C-65.15801749 179.34210172 -65.17251304 195.95006812 -65.17976093 212.55804253 C-65.18167075 216.86442948 -65.1835911 221.17081643 -65.18554688 225.47720337 C-65.18603062 226.54750538 -65.18651436 227.6178074 -65.18701275 228.7205428 C-65.19531842 246.07020766 -65.22066752 263.4198037 -65.25312755 280.76943849 C-65.28619048 298.58661046 -65.30420881 316.40374743 -65.30740517 334.22095025 C-65.30957047 344.22293441 -65.31832256 354.22481805 -65.34386635 364.22677231 C-65.36556245 372.74158937 -65.37362894 381.25628147 -65.36389957 389.77112304 C-65.35935235 394.11455589 -65.36126576 398.45773084 -65.38066101 402.80112839 C-65.39827454 406.77987655 -65.39730991 410.75817832 -65.38176372 414.7369311 C-65.37938495 416.17362085 -65.38372526 417.61034136 -65.39559237 419.04698406 C-65.48487503 430.57256732 -63.6755805 438.3442233 -55.74975586 446.84585571 C-48.49289998 453.82829268 -41.75289375 455.95553779 -31.77319336 455.83023071 C-30.91603729 455.82740082 -30.05888123 455.82457092 -29.17575073 455.82165527 C-26.45548154 455.8105182 -23.73554945 455.78542581 -21.01538086 455.75991821 C-19.16382314 455.74988004 -17.31226022 455.74075565 -15.46069336 455.73257446 C-10.93712725 455.71060009 -6.41381109 455.67611521 -1.89038086 455.63491821 C-5.23230744 452.85291728 -8.71733044 451.28488659 -12.71069336 449.59585571 C-14.06523013 449.00947033 -15.41938451 448.42220099 -16.77319336 447.83413696 C-18.8821836 446.923813 -20.99293179 446.01933824 -23.11108398 445.13052368 C-35.88005319 439.75206088 -46.74331216 433.33378148 -52.44433594 420.00064087 C-56.80001744 408.08691502 -54.43786455 395.84632003 -49.30897522 384.64445496 C-48.12947909 382.17134699 -46.91692619 379.7162216 -45.70288086 377.25991821 C-44.86947887 375.50476753 -44.0398576 373.74781706 -43.21386719 371.98916626 C-41.56380677 368.48505925 -39.89731069 364.98965214 -38.21557617 361.50064087 C-35.03313324 354.87598027 -32.05339333 348.16715996 -29.07788086 341.44741821 C-28.04119179 339.13053229 -27.00344251 336.81412045 -25.96459961 334.49819946 C-25.20735596 332.80751343 -25.20735596 332.80751343 -24.43481445 331.08267212 C-21.75463394 325.09950595 -19.07237408 319.11727198 -16.39038086 313.13491821 C-15.30703819 310.71825573 -14.22370484 308.30158907 -13.14038086 305.88491821 C15.02628581 243.05158488 43.19295247 180.21825155 71.35961914 117.38491821 C71.89643311 116.18689575 72.43324707 114.98887329 72.98632812 113.75454712 C74.06241145 111.35508684 75.14003088 108.95631484 76.21923828 106.55825806 C78.75047737 100.92877007 81.26593365 95.29451282 83.7260437 89.63363647 C84.88124297 86.97810086 86.04538384 84.32652802 87.21020508 81.67520142 C88.02263515 79.81594998 88.8221936 77.95109061 89.62133789 76.08609009 C94.75379203 64.4256305 101.20612549 56.56934691 113.29711914 51.75991821 C129.11329966 47.15031586 142.38273509 54.15756814 156.48461914 60.57241821 C157.76396937 61.15072133 159.04351502 61.72859228 160.32324219 62.30606079 C162.96388268 63.49801871 165.60369331 64.69178628 168.24291992 65.88687134 C174.12800725 68.54983993 180.02590296 71.18421008 185.92211914 73.82241821 C194.13965929 77.50366823 202.35332847 81.19339621 210.56274414 84.89273071 C213.93249656 86.411047 217.30228224 87.92928943 220.67211914 89.44741821 C221.52272919 89.83063232 222.37333923 90.21384644 223.24972534 90.6086731 C235.87583098 96.295423 248.5218298 101.93557782 261.18191528 107.54620361 C273.51853002 113.0157824 285.81916354 118.56247699 298.10961914 124.13491821 C311.71571058 130.30271906 325.33530856 136.43829866 338.98461914 142.50991821 C340.09256836 143.00358887 340.09256836 143.00358887 341.22290039 143.50723267 C343.3276498 144.44465203 345.4333089 145.37999472 347.53930664 146.31460571 C348.71734863 146.83780396 349.89539063 147.3610022 351.10913086 147.90005493 C356.40922983 150.22346152 361.76332158 152.4205225 367.10961914 154.63491821 C367.15606921 143.96851737 367.19155259 133.30214081 367.21324348 122.63565922 C367.22365682 117.68216935 367.2377711 112.72874896 367.26049805 107.77529907 C367.28231401 102.99016581 367.29420618 98.20509915 367.29937363 93.41991997 C367.30305371 91.5991861 367.31023982 89.77845565 367.32107925 87.95775032 C367.33571068 85.39701739 367.33759225 82.83655571 367.33666992 80.27578735 C367.34386047 79.53203354 367.35105103 78.78827972 367.35845947 78.02198792 C367.32726732 69.9583032 366.12881232 63.13034468 361.10961914 56.63491821 C360.24336914 55.36648071 360.24336914 55.36648071 359.35961914 54.07241821 C354.24360973 48.53007468 347.46748729 44.98077845 339.90730357 44.38076788 C338.745464 44.37881696 337.58362443 44.37686604 336.38657761 44.374856 C335.73262664 44.37105032 335.07867567 44.36724465 334.404908 44.36332366 C332.21628919 44.35302729 330.02793068 44.35691036 327.83929443 44.36076355 C326.25319232 44.35631008 324.66709243 44.35099568 323.0809958 44.34489483 C318.72423495 44.33071749 314.36754545 44.32905148 310.01076484 44.32949173 C305.31123362 44.3278433 300.61173177 44.31477634 295.91221619 44.30329895 C285.63743476 44.28045241 275.36267398 44.27252881 265.0878706 44.26747251 C258.67180003 44.26421529 252.25573545 44.25769268 245.83966827 44.25047112 C228.07366504 44.23090616 210.30766738 44.21450116 192.54165268 44.21159458 C190.8364467 44.21131323 190.8364467 44.21131323 189.09679212 44.21102619 C186.79224126 44.21065994 184.48769039 44.21029624 182.18313953 44.20993508 C181.03916589 44.20975227 179.89519225 44.20956945 178.71655273 44.2093811 C177.57118216 44.20920055 176.42581159 44.20902001 175.24573281 44.20883399 C156.68418713 44.20529189 138.12275743 44.17826681 119.56125197 44.14088321 C100.50221836 44.10280486 81.44324231 44.08343714 62.38416982 44.08313507 C51.68404136 44.08255042 40.98405128 44.07405325 30.28395844 44.04513741 C21.17331206 44.02062996 12.06285454 44.01333642 2.95218411 44.02838493 C-1.69519618 44.03555622 -6.34220348 44.03468685 -10.98954201 44.01197433 C-15.2472543 43.99136554 -19.50430728 43.9940022 -23.76201257 44.01484918 C-25.29901804 44.01834044 -26.83607126 44.01344941 -28.37301412 43.99914474 C-40.14732207 43.89665563 -49.38678273 45.93805649 -57.89038086 54.63491821 Z M110.10961914 62.63491821 C109.09641602 63.25946899 109.09641602 63.25946899 108.06274414 63.89663696 C103.40847474 67.3332196 100.89995329 71.53085516 98.42602539 76.66616821 C97.91295837 77.71251434 97.91295837 77.71251434 97.38952637 78.77999878 C93.11638199 87.5649742 89.11254473 96.4745992 85.10961914 105.38491821 C84.2725573 107.24176918 83.43531436 109.09853852 82.59790039 110.95523071 C77.0697139 123.22367446 71.59280005 135.51465513 66.14257812 147.81790161 C60.69317772 160.11838726 55.16571928 172.38229117 49.60961914 184.63491821 C43.37485261 198.38494887 37.18960462 212.15517152 31.07299805 225.9581604 C25.41717471 238.71987294 19.70010629 251.4532182 13.96282959 264.17849731 C8.66144124 275.93907123 3.39850568 287.71583691 -1.82788086 299.50991821 C-7.62002353 312.57996359 -13.48698926 325.61476327 -19.39038086 338.63491821 C-25.64324986 352.42774497 -31.86048892 366.23556566 -38.01538086 380.07241821 C-38.36157471 380.8494812 -38.70776855 381.62654419 -39.06445312 382.42715454 C-40.0314635 384.59856831 -40.99647428 386.77085752 -41.96069336 388.94351196 C-42.24514313 389.58203598 -42.5295929 390.22056 -42.82266235 390.87843323 C-46.69324361 399.62202631 -47.65289084 408.99517404 -44.20288086 418.13491821 C-38.12407249 431.00768888 -25.50949901 435.4679969 -13.15454102 440.83804321 C-9.16451822 442.57276091 -5.18455284 444.33035854 -1.20288086 446.08413696 C-0.3650708 446.45243622 0.47273926 446.82073547 1.3359375 447.20019531 C10.07170755 451.0454815 18.76468055 454.98377246 27.45532227 458.92974854 C41.31479892 465.22257176 55.19225723 471.47116021 69.10961914 477.63491821 C82.13852102 483.4051927 95.13206562 489.2500915 108.10961914 495.13491821 C121.12961628 501.03866086 134.16471315 506.9049664 147.23461914 512.69741821 C159.79337004 518.26396394 172.33433029 523.86845775 184.85961914 529.50991821 C185.69056091 529.8841391 186.52150269 530.25835999 187.37762451 530.6439209 C194.13613223 533.68800698 200.89364943 536.73428941 207.65112305 539.78067017 C213.55349349 542.44144469 219.45624062 545.10138096 225.35961914 547.75991821 C226.1870462 548.13254791 227.01447327 548.50517761 227.86697388 548.88909912 C241.30430503 554.9387619 254.76231184 560.94086532 268.23339844 566.91494751 C275.39397848 570.09104791 282.55048209 573.27562439 289.69555664 576.48648071 C290.37683121 576.79254745 291.05810577 577.0986142 291.76002502 577.41395569 C294.96371625 578.85369529 298.1665374 580.2953299 301.36816406 581.73965454 C303.03649292 582.49025146 303.03649292 582.49025146 304.73852539 583.25601196 C305.70862549 583.69356812 306.67872559 584.13112427 307.67822266 584.5819397 C315.15087755 587.81816427 323.75778232 587.85728594 331.42211914 585.07241821 C340.34321281 580.77288624 345.1784193 574.87992901 349.10961914 565.94741821 C349.56199951 564.9624939 350.01437988 563.97756958 350.48046875 562.96279907 C351.76408958 560.15043853 353.02754796 557.33007493 354.2802124 554.5038147 C355.14140577 552.56329362 356.00791123 550.62521815 356.87573242 548.68765259 C360.20665244 541.24783619 363.51428157 533.79793231 366.80883789 526.34194946 C371.15772036 516.50349916 375.56530075 506.69189244 379.98461914 496.88491821 C380.7404091 495.20694509 381.49618705 493.52896655 382.25195312 491.85098267 C384.91864645 485.9312916 387.58701449 480.01235577 390.25537109 474.09341431 C392.91614563 468.19104385 395.57600396 462.28826165 398.23461914 456.38491821 C398.60924286 455.55317078 398.98386658 454.72142334 399.36984253 453.86447144 C404.96108418 441.44729391 410.5045639 429.00959691 416.02227783 416.55960083 C421.8898506 403.32526136 427.84895072 390.13341413 433.8276062 376.94894409 C439.30550722 364.86633815 444.73733418 352.76484117 450.10961914 340.63491821 C455.94460574 327.46127628 461.85120778 314.32136303 467.79711914 301.19741821 C468.60369794 299.41650259 469.41025738 297.6355782 470.21679688 295.85464478 C471.39472287 293.25382834 472.5726732 290.65302293 473.75068665 288.05224609 C478.79963301 276.9057185 478.79963301 276.9057185 483.83120728 265.75134277 C484.64486239 263.94541525 485.46153941 262.14085018 486.27832031 260.33633423 C486.76018799 259.26439819 487.24205566 258.19246216 487.73852539 257.08804321 C488.15175049 256.17184204 488.56497559 255.25564087 488.99072266 254.31167603 C492.44593853 246.04569591 494.02381974 237.40802519 491.12915039 228.67788696 C487.60448361 221.44418621 483.65275319 216.4378638 476.38696289 212.78335571 C475.72864975 212.44291229 475.07033661 212.10246887 474.39207458 211.75170898 C467.66979477 208.3216029 460.79632834 205.23858078 453.88040161 202.22296143 C450.77990015 200.87081697 447.68532845 199.50532401 444.59031677 198.14067078 C442.94943755 197.41720053 441.308291 196.69433632 439.66688538 195.97206116 C430.31066794 191.8519156 420.99144938 187.6501573 411.67211914 183.44741821 C409.12237475 182.29848234 406.57252068 181.14979012 404.0226593 180.00111389 C402.37019075 179.25669104 400.717755 178.51219536 399.06535339 177.7676239 C379.12261933 168.78234698 359.15056718 159.86224269 339.18334961 150.93154907 C328.50653302 146.1559435 317.83250395 141.37417346 307.16040039 136.58804321 C297.14612494 132.09773546 287.12812198 127.61578432 277.10961914 123.13491821 C264.79059179 117.6251217 252.47385992 112.11027421 240.16040039 106.58804321 C228.51445662 101.3661106 216.86361097 96.15514965 205.21240234 90.94497681 C197.84665843 87.65087882 190.48168736 84.35511742 183.12133789 81.04898071 C171.46582118 75.8140648 159.80287632 70.59760326 148.10961914 65.44741821 C147.07023193 64.98931763 146.03084473 64.53121704 144.95996094 64.05923462 C143.51810425 63.42574097 143.51810425 63.42574097 142.04711914 62.77944946 C141.21051758 62.41182495 140.37391602 62.04420044 139.51196289 61.66543579 C129.55054623 57.39235248 119.58875171 56.64714554 110.10961914 62.63491821 Z " fill="#060606" transform="translate(248.890380859375,166.36508178710938)"/>
<path d="M0 0 C1.35770668 -0.00461521 2.71540835 -0.01097227 4.07309967 -0.01890898 C7.78471465 -0.03554089 11.49591597 -0.02738422 15.20753205 -0.0149641 C19.21785545 -0.00589052 23.22810916 -0.01989481 27.23841858 -0.03088379 C35.08728558 -0.04864952 42.93599939 -0.04483759 50.78487235 -0.03323323 C57.16568717 -0.02419086 63.54645913 -0.02297838 69.92727852 -0.02732849 C70.83626573 -0.02794142 71.74525294 -0.02855436 72.68178521 -0.02918586 C74.52852711 -0.0304648 76.37526899 -0.03176165 78.22201086 -0.03307623 C95.53026433 -0.04447649 112.83843299 -0.03137735 130.14667255 -0.00987476 C144.98812875 0.0079927 159.82945977 0.00489394 174.6709137 -0.0135498 C191.91669479 -0.0349715 209.16240158 -0.04337473 226.40819412 -0.03110075 C228.24835685 -0.02982659 230.08851958 -0.02856911 231.92868233 -0.02732849 C232.83401259 -0.02671139 233.73934286 -0.02609429 234.67210738 -0.02545848 C241.04249527 -0.02200926 247.41283591 -0.02782477 253.78321648 -0.0372467 C261.55065588 -0.04848264 269.31793366 -0.04539331 277.08535462 -0.02412373 C281.04614262 -0.01363424 285.00666146 -0.00945534 288.96744728 -0.02272034 C292.59771226 -0.0346942 296.22746018 -0.02800046 299.85767866 -0.00681013 C301.78347958 -0.00026938 303.70931677 -0.01323554 305.63507932 -0.02703905 C314.08039879 0.04887722 321.04268729 1.38525759 328.04566956 6.29699707 C335.38584472 13.94640356 338.49488831 19.73914235 338.49488831 30.50793457 C215.07488831 30.50793457 91.65488831 30.50793457 -35.50511169 30.50793457 C-35.50511169 19.70833146 -32.40060928 13.90116036 -24.95823669 6.29699707 C-17.0211516 0.50848596 -9.63126623 -0.06891165 0 0 Z " fill="#CCCCCC" transform="translate(248.50511169433594,173.4920654296875)"/>
<path d="M0 0 C1.24330078 0.01353516 1.24330078 0.01353516 2.51171875 0.02734375 C16.78261009 0.4274622 27.27579966 6.52344796 37.0625 16.75 C45.34170571 26.59003957 48.77075125 38.76007517 47.6875 51.4375 C45.32050007 65.7319605 38.83814229 77.45259295 27.1875 86.3125 C15.16934522 94.1941736 1.10681366 95.24905287 -12.83984375 92.82421875 C-25.11509988 89.16261147 -33.78770623 81.26588115 -40.3125 70.4375 C-41.85590837 67.49811332 -43.17746181 64.55604552 -44.3125 61.4375 C-44.66828125 60.52871094 -45.0240625 59.61992187 -45.390625 58.68359375 C-48.67017849 47.13567448 -46.59780178 34.39953999 -40.9921875 23.984375 C-31.88115375 9.34697652 -17.43771754 -0.22944365 0 0 Z " fill="#141414" transform="translate(504.3125,352.5625)"/>
<path d="M0 0 C0.99 0 1.98 0 3 0 C3 0.66 3 1.32 3 2 C4.093125 2.103125 5.18625 2.20625 6.3125 2.3125 C10 3 10 3 12 4.125 C13.73620466 7.38038374 12.98457993 9.525012 12 13 C9.8186609 16.20859763 7.50895675 19.24552162 4 21 C0.98736238 21.41081422 -1.11455633 21.57293414 -3.7265625 19.8828125 C-5.20110211 18.64587643 -6.60628788 17.32734487 -8 16 C-10.475 19.465 -10.475 19.465 -13 23 C-13.99 22.67 -14.98 22.34 -16 22 C-13.18443583 16.79689092 -10.01796945 12.22861635 -6.3125 7.625 C-5.81427734 6.99722656 -5.31605469 6.36945313 -4.80273438 5.72265625 C-1.21552579 1.21552579 -1.21552579 1.21552579 0 0 Z " fill="#161616" transform="translate(414,460)"/>
<path d="M0 0 C4.50727647 0.60266785 7.8587963 2.36599794 11.8125 4.5625 C12.7087207 5.0565332 12.7087207 5.0565332 13.62304688 5.56054688 C15.08533998 6.36773267 16.5431399 7.18304917 18 8 C18.17271646 13.93712818 17.27008498 17.60854817 15 23 C10.04001528 22.38367054 6.06328034 20.20164371 1.6875 17.9375 C0.94693359 17.56044922 0.20636719 17.18339844 -0.55664062 16.79492188 C-2.37387522 15.86871843 -4.18732404 14.93509371 -6 14 C-4.85112887 10.38778356 -3.61667691 6.99224203 -1.875 3.625 C-1.34519531 2.59246094 -1.34519531 2.59246094 -0.8046875 1.5390625 C-0.53914062 1.03117187 -0.27359375 0.52328125 0 0 Z " fill="#F2F2F2" transform="translate(513,384)"/>
<path d="M0 0 C5.31455478 0.515103 8.90623121 2.36164705 13.375 5.0625 C14.33599609 5.62807617 14.33599609 5.62807617 15.31640625 6.20507812 C16.88254066 7.12839617 18.44198034 8.06305393 20 9 C18.74361009 12.3523301 17.31266112 15.30402615 15.375 18.3125 C14.92898438 19.00988281 14.48296875 19.70726562 14.0234375 20.42578125 C13.51683594 21.20501953 13.51683594 21.20501953 13 22 C6.2813095 20.00386732 0.19265192 17.2708579 -6 14 C-5.41892368 10.2397015 -4.34800504 7.46964968 -2.4375 4.1875 C-1.98246094 3.39730469 -1.52742188 2.60710937 -1.05859375 1.79296875 C-0.53458984 0.90544922 -0.53458984 0.90544922 0 0 Z " fill="#F4F4F4" transform="translate(505,402)"/>
<path d="M0 0 C4.38481346 0.49827426 6.53594724 1.40196043 10 4 C11.72688742 4.78233233 13.47873647 5.51162313 15.25 6.1875 C16.58804687 6.70376953 16.58804687 6.70376953 17.953125 7.23046875 C18.62859375 7.48441406 19.3040625 7.73835938 20 8 C18.50829734 12.9723422 16.39542583 17.41845739 14 22 C9.3110507 21.44380331 5.80075733 20.11817327 1.625 17.9375 C0.56539063 17.38964844 -0.49421875 16.84179688 -1.5859375 16.27734375 C-2.38257813 15.85582031 -3.17921875 15.43429687 -4 15 C-3.52229477 13.06213915 -3.04278429 11.12472326 -2.5625 9.1875 C-2.29566406 8.10855469 -2.02882813 7.02960938 -1.75390625 5.91796875 C-1.23922588 3.9259157 -0.65062825 1.95188476 0 0 Z " fill="#F3F3F3" transform="translate(482,391)"/>
<path d="M0 0 C4.48993869 0.58652352 8.22543184 1.7643538 12.375 3.5625 C13.43460937 4.01753906 14.49421875 4.47257812 15.5859375 4.94140625 C16.38257813 5.29074219 17.17921875 5.64007813 18 6 C17.27623543 9.49403583 15.93714794 12.51998905 14.4375 15.75 C13.98246094 16.73484375 13.52742188 17.7196875 13.05859375 18.734375 C12.70925781 19.48203125 12.35992187 20.2296875 12 21 C5.2813095 19.00386732 -0.80734808 16.2708579 -7 13 C-6.45702445 9.07545517 -5.39837626 6.7766851 -2.9375 3.6875 C-2.38964844 2.99011719 -1.84179688 2.29273438 -1.27734375 1.57421875 C-0.64505859 0.79498047 -0.64505859 0.79498047 0 0 Z " fill="#F3F3F3" transform="translate(492,375)"/>
<path d="M0 0 C3.76558917 0.51495236 6.79304129 1.16539925 10.125 3 C12.74149767 4.4290911 15.07836377 5.3767176 18 6 C18 6.99 18 7.98 18 9 C17.34 9 16.68 9 16 9 C15.67 9.99 15.34 10.98 15 12 C12.6015625 13.7890625 12.6015625 13.7890625 9.625 15.625 C8.64789063 16.23601562 7.67078125 16.84703125 6.6640625 17.4765625 C3.03826037 19.54996841 0.41901735 20.12201474 -3.6875 20.0625 C-4.89986328 20.04896484 -4.89986328 20.04896484 -6.13671875 20.03515625 C-6.75160156 20.02355469 -7.36648438 20.01195312 -8 20 C-7.35014905 15.28629244 -5.48438608 11.42313556 -3.4375 7.1875 C-2.9434668 6.14819336 -2.9434668 6.14819336 -2.43945312 5.08789062 C-1.63127749 3.38955052 -0.81631623 1.69444231 0 0 Z " fill="#F3F3F3" transform="translate(496,420)"/>
<path d="M0 0 C1.86328125 0.29296875 1.86328125 0.29296875 4 1 C8.16796652 7.31149216 9.13294285 11.64217237 9.0625 19.25 C9.05347656 20.51328125 9.04445313 21.7765625 9.03515625 23.078125 C9.02355469 24.04234375 9.01195312 25.0065625 9 26 C3.5443163 23.87594923 -1.81634671 21.72823857 -7 19 C-6.4253379 14.21357393 -5.01754357 10.46211213 -2.9375 6.125 C-2.38964844 4.97257812 -1.84179688 3.82015625 -1.27734375 2.6328125 C-0.85582031 1.76398438 -0.43429687 0.89515625 0 0 Z " fill="#EFEFEF" transform="translate(523,362)"/>
<path d="M0 0 C6.12096691 1.05486051 10.75506674 2.65217026 16 6 C15.35014905 10.71370756 13.48438608 14.57686444 11.4375 18.8125 C10.9434668 19.85180664 10.9434668 19.85180664 10.43945312 20.91210938 C9.63127749 22.61044948 8.81631623 24.30555769 8 26 C7.34 26 6.68 26 6 26 C0.6065952 17.04416177 -0.16591916 10.36072957 0 0 Z " fill="#F4F4F4" transform="translate(477,411)"/>
<path d="M0 0 C-0.61811534 4.55315948 -2.46765893 8.28459767 -4.5625 12.3125 C-4.89185547 12.95767578 -5.22121094 13.60285156 -5.56054688 14.26757812 C-6.36824255 15.84785228 -7.18337613 17.42432105 -8 19 C-11.94949704 18.37183502 -15.19892028 17.1354471 -18.8125 15.4375 C-19.78832031 14.98246094 -20.76414062 14.52742188 -21.76953125 14.05859375 C-22.50558594 13.70925781 -23.24164063 13.35992187 -24 13 C-21.49957778 6.69337952 -14.70671447 3.19720063 -8.75 0.5625 C-5.76256699 -0.04856584 -3.04135654 -0.1448265 0 0 Z " fill="#EFEFEF" transform="translate(520,359)"/>
<path d="M0 0 C3.83804889 0.76760978 6.76220144 1.59504326 10.3125 3.0625 C11.19550781 3.42472656 12.07851563 3.78695313 12.98828125 4.16015625 C13.98408203 4.57587891 13.98408203 4.57587891 15 5 C14.38525348 8.3436213 13.18085051 10.43500655 11.125 13.125 C10.61195313 13.80820312 10.09890625 14.49140625 9.5703125 15.1953125 C8 17 8 17 5 19 C1.04 17.02 -2.92 15.04 -7 13 C-3.535 6.565 -3.535 6.565 0 0 Z " fill="#F3F3F3" transform="translate(528,413)"/>
<path d="M0 0 C3.25312918 0.58681665 6.23351164 1.3622164 9.3125 2.5625 C10.529375 3.036875 11.74625 3.51125 13 4 C12.34097701 7.57040303 10.83770842 10.17732255 8.9375 13.25 C8.38964844 14.14203125 7.84179688 15.0340625 7.27734375 15.953125 C6.85582031 16.62859375 6.43429687 17.3040625 6 18 C0.45949887 17.43174347 -4.03715966 15.37113483 -9 13 C-7.47987323 7.59510481 -3.72614782 4.01507372 0 0 Z " fill="#F1F1F1" transform="translate(476,367)"/>
<path d="M0 0 C3.7602985 0.58107632 6.53035032 1.65199496 9.8125 3.5625 C10.60269531 4.01753906 11.39289063 4.47257812 12.20703125 4.94140625 C13.09455078 5.46541016 13.09455078 5.46541016 14 6 C12.78623966 11.32187227 11.27376292 16.03906272 9 21 C5.04 19.35 1.08 17.7 -3 16 C-3.33266291 9.79029227 -2.45029331 5.71735105 0 0 Z " fill="#F3F3F3" transform="translate(465,383)"/>
<path d="M0 0 C3.01217112 0.64449607 5.51655836 1.65022182 8.25 3.0625 C8.95640625 3.42472656 9.6628125 3.78695313 10.390625 4.16015625 C10.92171875 4.43730469 11.4528125 4.71445312 12 5 C12.02712153 6.916588 12.04645097 8.8332873 12.0625 10.75 C12.07410156 11.81734375 12.08570313 12.8846875 12.09765625 13.984375 C12.01510087 16.53368501 11.74617558 18.57933591 11 21 C5.14727744 20.54979057 0.91779881 17.96160773 -4 15 C-3.52396226 12.87429688 -3.04407402 10.74945573 -2.5625 8.625 C-2.29566406 7.44164062 -2.02882813 6.25828125 -1.75390625 5.0390625 C-1 2 -1 2 0 0 Z " fill="#F1F1F1" transform="translate(535,394)"/>
<path d="M0 0 C0.99 0 1.98 0 3 0 C1.46527032 4.72224516 -0.23945126 9.35855331 -2 14 C-1.16855469 13.26652344 -0.33710938 12.53304687 0.51953125 11.77734375 C1.61672522 10.8301934 2.71440695 9.88360785 3.8125 8.9375 C4.63331055 8.20950195 4.63331055 8.20950195 5.47070312 7.46679688 C6.91610309 6.23163691 8.45427799 5.10704321 10 4 C10.99 4.33 11.98 4.66 13 5 C12.34728444 8.51705958 11.48606976 11.89325077 10.4375 15.3125 C10.16808594 16.19550781 9.89867187 17.07851563 9.62109375 17.98828125 C9.41613281 18.65214844 9.21117187 19.31601562 9 20 C9.43570313 19.54109375 9.87140625 19.0821875 10.3203125 18.609375 C13.9822651 14.83645414 17.51019692 11.7376848 22 9 C22 12 22 12 20.6796875 13.6484375 C18.79940425 15.44732321 16.91361634 17.23654671 15 19 C14.45214844 19.52851562 13.90429688 20.05703125 13.33984375 20.6015625 C11.8125 22 11.8125 22 9 24 C6.82421875 23.625 6.82421875 23.625 5 23 C5.144375 22.38511719 5.28875 21.77023437 5.4375 21.13671875 C5.623125 20.32847656 5.80875 19.52023437 6 18.6875 C6.185625 17.88699219 6.37125 17.08648438 6.5625 16.26171875 C7.09495823 13.89304062 7.09495823 13.89304062 7 11 C5.98679687 11.88365234 5.98679687 11.88365234 4.953125 12.78515625 C4.06109375 13.53667969 3.1690625 14.28820312 2.25 15.0625 C1.36828125 15.81660156 0.4865625 16.57070313 -0.421875 17.34765625 C-3 19 -3 19 -5.328125 18.74609375 C-5.87984375 18.49988281 -6.4315625 18.25367188 -7 18 C-5.06375702 11.79522136 -2.74390859 5.89174281 0 0 Z " fill="#222222" transform="translate(505,502)"/>
<path d="M0 0 C0.99 0 1.98 0 3 0 C1.46527032 4.72224516 -0.23945126 9.35855331 -2 14 C-1.16855469 13.26652344 -0.33710938 12.53304688 0.51953125 11.77734375 C1.61672522 10.8301934 2.71440695 9.88360785 3.8125 8.9375 C4.63331055 8.20950195 4.63331055 8.20950195 5.47070312 7.46679688 C6.91610309 6.23163691 8.45427799 5.10704321 10 4 C10.99 4.33 11.98 4.66 13 5 C12.34728444 8.51705958 11.48606976 11.89325077 10.4375 15.3125 C10.16808594 16.19550781 9.89867187 17.07851563 9.62109375 17.98828125 C9.41613281 18.65214844 9.21117187 19.31601562 9 20 C9.43570312 19.54109375 9.87140625 19.0821875 10.3203125 18.609375 C13.9822651 14.83645414 17.51019692 11.7376848 22 9 C22 12 22 12 20.6796875 13.6484375 C18.79940425 15.44732321 16.91361634 17.23654671 15 19 C14.45214844 19.52851563 13.90429688 20.05703125 13.33984375 20.6015625 C11.8125 22 11.8125 22 9 24 C6.82421875 23.625 6.82421875 23.625 5 23 C5.144375 22.38511719 5.28875 21.77023437 5.4375 21.13671875 C5.623125 20.32847656 5.80875 19.52023437 6 18.6875 C6.185625 17.88699219 6.37125 17.08648437 6.5625 16.26171875 C7.09495823 13.89304062 7.09495823 13.89304062 7 11 C5.98679687 11.88365234 5.98679687 11.88365234 4.953125 12.78515625 C4.06109375 13.53667969 3.1690625 14.28820312 2.25 15.0625 C1.36828125 15.81660156 0.4865625 16.57070313 -0.421875 17.34765625 C-3 19 -3 19 -5.328125 18.74609375 C-5.87984375 18.49988281 -6.4315625 18.25367188 -7 18 C-5.06375702 11.79522136 -2.74390859 5.89174281 0 0 Z " fill="#222222" transform="translate(479,490)"/>
<path d="M0 0 C0.66 0.33 1.32 0.66 2 1 C1.34580901 6.06998019 -0.8546409 10.41990777 -3 15 C-1.77004051 14.0843974 -0.54107614 13.16745797 0.6875 12.25 C1.41710937 11.70730469 2.14671875 11.16460938 2.8984375 10.60546875 C4.58401423 9.31778839 6.20956791 7.95170781 7.8125 6.5625 C8.534375 6.046875 9.25625 5.53125 10 5 C10.99 5.33 11.98 5.66 13 6 C12.7834375 6.68707031 12.566875 7.37414062 12.34375 8.08203125 C12.0653125 8.98308594 11.786875 9.88414062 11.5 10.8125 C11.2215625 11.70582031 10.943125 12.59914063 10.65625 13.51953125 C9.87211649 16.05573395 9.87211649 16.05573395 10 19 C10.68707031 18.3503125 11.37414062 17.700625 12.08203125 17.03125 C12.98308594 16.1959375 13.88414062 15.360625 14.8125 14.5 C15.70582031 13.6646875 16.59914063 12.829375 17.51953125 11.96875 C20 10 20 10 23 10 C21.46462136 13.75696002 19.18751615 15.93533035 16.1875 18.625 C14.90939453 19.78902344 14.90939453 19.78902344 13.60546875 20.9765625 C11.10514074 22.91834648 8.98477894 24.00328746 6 25 C4.81043117 20.84773144 5.21039437 18.61274007 6.9375 14.6875 C7.31777344 13.80449219 7.69804688 12.92148437 8.08984375 12.01171875 C8.39019531 11.34785156 8.69054687 10.68398438 9 10 C7.35357683 11.31176002 5.70787757 12.6244287 4.0625 13.9375 C3.14597656 14.66839844 2.22945312 15.39929688 1.28515625 16.15234375 C-0.40851269 17.51938711 -0.40851269 17.51938711 -2 19 C-3.66617115 19.04063832 -5.33388095 19.042721 -7 19 C-6.33392561 14.59041892 -4.73375271 10.73427814 -2.9375 6.6875 C-2.65583984 6.04232422 -2.37417969 5.39714844 -2.08398438 4.73242188 C-1.3937257 3.15301642 -0.69746802 1.57623507 0 0 Z " fill="#1A1A1A" transform="translate(531,513)"/>
<path d="M0 0 C0.70125 0.28875 1.4025 0.5775 2.125 0.875 C5.05452503 2.02133588 8.00921653 3.02625654 11 4 C11 4.99 11 5.98 11 7 C1.4206679 11.8966313 -6.15734472 14.21685311 -17 14 C-14.75628737 11.58479341 -12.40766766 9.88197446 -9.625 8.125 C-5.93278596 5.71572493 -2.96441982 3.25129916 0 0 Z " fill="#F4F4F4" transform="translate(518,429)"/>
<path d="M0 0 C1.46067199 0.45082469 2.91848032 0.91093537 4.375 1.375 C5.18710937 1.63023437 5.99921875 1.88546875 6.8359375 2.1484375 C9 3 9 3 11 5 C11.31884766 7.15478516 11.31884766 7.15478516 11.4140625 9.7890625 C11.45273437 10.73007812 11.49140625 11.67109375 11.53125 12.640625 C11.5621875 13.62546875 11.593125 14.6103125 11.625 15.625 C11.66367187 16.61757813 11.70234375 17.61015625 11.7421875 18.6328125 C11.8366314 21.08835385 11.92219875 23.5438841 12 26 C5.60519251 20.04021342 1.1014308 12.5657752 0.125 3.75 C0.08375 2.5125 0.0425 1.275 0 0 Z " fill="#EDEDED" transform="translate(462,403)"/>
<path d="M0 0 C0.99 0 1.98 0 3 0 C1.87548273 2.9719385 0.77706209 5.33440687 -1 8 C0.670625 8.433125 0.670625 8.433125 2.375 8.875 C6 10 6 10 8 12 C7.77839538 17.04686661 5.96802524 19.93050684 2.9375 23.875 C2.20402344 24.84179688 1.47054688 25.80859375 0.71484375 26.8046875 C0.14894531 27.52914063 -0.41695313 28.25359375 -1 29 C-1.99 28.34 -2.98 27.68 -4 27 C-3.41089844 26.25234375 -2.82179688 25.5046875 -2.21484375 24.734375 C-1.46332031 23.74953125 -0.71179688 22.7646875 0.0625 21.75 C0.81660156 20.77546875 1.57070313 19.8009375 2.34765625 18.796875 C4.25910076 16.19779338 4.25910076 16.19779338 3.74609375 13.640625 C3.49988281 13.09921875 3.25367188 12.5578125 3 12 C0.21061788 11.58109782 0.21061788 11.58109782 -3 12 C-5.45059955 14.03220451 -7.35299249 16.20152541 -9.3515625 18.66796875 C-10.54192901 20.13330296 -11.7686307 21.56894919 -13 23 C-13.66 23 -14.32 23 -15 23 C-14.01704013 17.54325279 -10.35163215 13.61013965 -7.125 9.25 C-6.16787109 7.91775391 -6.16787109 7.91775391 -5.19140625 6.55859375 C-4.57394531 5.71941406 -3.95648438 4.88023437 -3.3203125 4.015625 C-2.75586426 3.24508789 -2.19141602 2.47455078 -1.60986328 1.68066406 C-1.0786084 1.12604492 -0.54735352 0.57142578 0 0 Z " fill="#131313" transform="translate(371,432)"/>
<path d="M0 0 C6.32212707 6.02561189 11.73284296 13.85538811 12.125 22.875 C12.08375 23.57625 12.0425 24.2775 12 25 C9.98202112 24.38991336 7.98451771 23.71143088 6 23 C5.1234375 22.690625 4.246875 22.38125 3.34375 22.0625 C0.55453999 19.60799519 0.59297132 18.91320473 0.29296875 15.33203125 C0.23321105 13.49282218 0.19899292 11.65264372 0.1875 9.8125 C0.16236328 8.87212891 0.13722656 7.93175781 0.11132812 6.96289062 C0.05240976 4.64150721 0.0161669 2.32201076 0 0 Z " fill="#DFDFDF" transform="translate(535,370)"/>
<path d="M0 0 C0.99386719 0.00902344 1.98773438 0.01804687 3.01171875 0.02734375 C4.15060547 0.04474609 4.15060547 0.04474609 5.3125 0.0625 C2.97229151 2.52310507 0.44816516 4.56692674 -2.25 6.625 C-4.53384219 8.36882039 -6.65480542 10.02980542 -8.6875 12.0625 C-12.82013259 11.71811395 -16.06858204 9.99820031 -19.6875 8.0625 C-18.6875 5.0625 -18.6875 5.0625 -16.5078125 3.9296875 C-15.61835938 3.60226562 -14.72890625 3.27484375 -13.8125 2.9375 C-12.48605469 2.43863281 -12.48605469 2.43863281 -11.1328125 1.9296875 C-7.16626408 0.52302017 -4.20995964 -0.04952894 0 0 Z " fill="#ECECEC" transform="translate(501.6875,356.9375)"/>
<path d="M0 0 C2 2 2 2 2 4.8125 C0.63532237 9.16240995 -1.13775585 10.63973969 -5 13 C-8.875 12.8125 -8.875 12.8125 -12 12 C-12.8125 9.375 -12.8125 9.375 -13 6 C-9.4845738 -0.12364564 -6.89686675 -0.90450711 0 0 Z " fill="#F4F4F4" transform="translate(422,465)"/>
<path d="M0 0 C2.4375 1.375 2.4375 1.375 4 3 C4 3.99 4 4.98 4 6 C3.01 6 2.02 6 1 6 C0.34 5.01 -0.32 4.02 -1 3 C-4.06556598 2.26656572 -4.06556598 2.26656572 -7 2 C-5.76205327 5.60846776 -5.76205327 5.60846776 -3.375 8.5 C-2 10 -2 10 -1.625 12.5 C-2 15 -2 15 -3.125 16.8125 C-5.8958275 18.56735742 -7.7770906 18.38674913 -11 18 C-13.8125 16.8125 -13.8125 16.8125 -16 15 C-16.8125 12.3125 -16.8125 12.3125 -17 10 C-16.01 10 -15.02 10 -14 10 C-13.67 10.99 -13.34 11.98 -13 13 C-11.12612784 13.80212628 -11.12612784 13.80212628 -8.9375 14.1875 C-8.20402344 14.34605469 -7.47054688 14.50460937 -6.71484375 14.66796875 C-6.14894531 14.77753906 -5.58304687 14.88710938 -5 15 C-6.23794673 11.39153224 -6.23794673 11.39153224 -8.625 8.5 C-10 7 -10 7 -10.375 4.5 C-10 2 -10 2 -8.9375 0.125 C-5.79115075 -1.70191247 -3.42654091 -0.84160654 0 0 Z " fill="#1A1A1A" transform="translate(441,471)"/>
<path d="M0 0 C-0.33 1.32 -0.66 2.64 -1 4 C0.32 4.66 1.64 5.32 3 6 C3 6.66 3 7.32 3 8 C0.69 7.67 -1.62 7.34 -4 7 C-5.01170618 8.24054448 -6.00897797 9.4928702 -7 10.75 C-7.556875 11.44609375 -8.11375 12.1421875 -8.6875 12.859375 C-10.34847198 15.14984749 -10.34847198 15.14984749 -10 19 C-9.01 19.33 -8.02 19.66 -7 20 C-7 20.66 -7 21.32 -7 22 C-9.80362763 22.22732116 -11.46186517 22.34081872 -13.875 20.8125 C-15 19 -15 19 -15.0625 16.8125 C-13.72821348 13.2805651 -11.71365846 10.70971964 -9.375 7.76953125 C-7.93836349 6.03978229 -7.93836349 6.03978229 -7 4 C-7.66 4 -8.32 4 -9 4 C-9 3.34 -9 2.68 -9 2 C-3.375 0 -3.375 0 0 0 Z " fill="#181818" transform="translate(393,445)"/>
<path d="M0 0 C1.32 0.33 2.64 0.66 4 1 C3.34 2.32 2.68 3.64 2 5 C3.32 5.33 4.64 5.66 6 6 C6 6.66 6 7.32 6 8 C1.25 7.125 1.25 7.125 -1 6 C-1.2475 6.721875 -1.495 7.44375 -1.75 8.1875 C-3 11 -3 11 -5.125 13.625 C-7.30982214 15.88811978 -7.30982214 15.88811978 -7 19 C-6.01 19.33 -5.02 19.66 -4 20 C-4 20.66 -4 21.32 -4 22 C-6.375 22.125 -6.375 22.125 -9 22 C-11 20 -11 20 -11.375 17.73828125 C-10.86873399 14.04148469 -9.26470422 12.12453828 -7 9.1875 C-6.2575 8.21167969 -5.515 7.23585938 -4.75 6.23046875 C-4.1725 5.49441406 -3.595 4.75835937 -3 4 C-3.66 4 -4.32 4 -5 4 C-5 3.34 -5 2.68 -5 2 C-3.68 2 -2.36 2 -1 2 C-0.67 1.34 -0.34 0.68 0 0 Z " fill="#171717" transform="translate(403,451)"/>
<path d="M0 0 C0.66 0 1.32 0 2 0 C1.34728444 3.51705958 0.48606976 6.89325077 -0.5625 10.3125 C-0.83191406 11.19550781 -1.10132813 12.07851563 -1.37890625 12.98828125 C-1.58386719 13.65214844 -1.78882813 14.31601562 -2 15 C-1.56429687 14.54109375 -1.12859375 14.0821875 -0.6796875 13.609375 C2.9822651 9.83645414 6.51019692 6.7376848 11 4 C11 7 11 7 9.6796875 8.6484375 C7.79940425 10.44732321 5.91361634 12.23654671 4 14 C3.45214844 14.52851562 2.90429688 15.05703125 2.33984375 15.6015625 C0.8125 17 0.8125 17 -2 19 C-4.17578125 18.625 -4.17578125 18.625 -6 18 C-3.26213592 4.89320388 -3.26213592 4.89320388 0 0 Z " fill="#161616" transform="translate(516,507)"/>
<path d="M0 0 C0.66 0 1.32 0 2 0 C1.34728444 3.51705958 0.48606976 6.89325077 -0.5625 10.3125 C-0.83191406 11.19550781 -1.10132813 12.07851563 -1.37890625 12.98828125 C-1.58386719 13.65214844 -1.78882813 14.31601562 -2 15 C-1.56429688 14.54109375 -1.12859375 14.0821875 -0.6796875 13.609375 C2.9822651 9.83645414 6.51019692 6.7376848 11 4 C11 7 11 7 9.6796875 8.6484375 C7.79940425 10.44732321 5.91361634 12.23654671 4 14 C3.45214844 14.52851563 2.90429688 15.05703125 2.33984375 15.6015625 C0.8125 17 0.8125 17 -2 19 C-4.17578125 18.625 -4.17578125 18.625 -6 18 C-3.26213592 4.89320388 -3.26213592 4.89320388 0 0 Z " fill="#161616" transform="translate(490,495)"/>
<path d="M0 0 C0.99 0.33 1.98 0.66 3 1 C-0.68415368 4.8295808 -4.55729976 8.17759253 -8.75 11.4375 C-9.36182129 11.91614502 -9.97364258 12.39479004 -10.60400391 12.88793945 C-15.25285411 16.49345712 -20.01341953 19.8734932 -25 23 C-25.66 22.34 -26.32 21.68 -27 21 C-25.79296875 20.06119792 -24.5859375 19.12239583 -23.37890625 18.18359375 C-22.60740234 17.58353516 -21.83589844 16.98347656 -21.04101562 16.36523438 C-13.81640625 10.74609375 -13.81640625 10.74609375 -11.41845703 8.89404297 C-9.76188629 7.59668017 -8.12286786 6.27667857 -6.49951172 4.93798828 C-5.70432129 4.28942871 -4.90913086 3.64086914 -4.08984375 2.97265625 C-3.37562256 2.378479 -2.66140137 1.78430176 -1.92553711 1.17211914 C-1.29010986 0.78531982 -0.65468262 0.39852051 0 0 Z " fill="#1C1C1C" transform="translate(471,477)"/>
<path d="M0 0 C0.5775 0.226875 1.155 0.45375 1.75 0.6875 C-4.86572447 6.38287001 -11.52819875 12.02074544 -18.375 17.4375 C-18.91858154 17.8794873 -19.46216309 18.32147461 -20.0222168 18.77685547 C-21.5703125 19.984375 -21.5703125 19.984375 -24.25 21.6875 C-25.24 21.3575 -26.23 21.0275 -27.25 20.6875 C-23.17859454 16.43284146 -18.77605268 12.74680078 -14.1875 9.0625 C-13.12692383 8.20398438 -13.12692383 8.20398438 -12.04492188 7.328125 C-10.11931448 5.77317442 -8.19303515 4.2206219 -6.25 2.6875 C-5.5597876 2.12498535 -4.8695752 1.5624707 -4.15844727 0.98291016 C-2.25 -0.3125 -2.25 -0.3125 0 0 Z " fill="#1B1B1B" transform="translate(481.25,482.3125)"/>
<path d="M0 0 C0.66 0 1.32 0 2 0 C1.625 2.6875 1.625 2.6875 0 6 C-6.09173755 10.47991594 -12.56934146 11.82609097 -20 12 C-19.67 10.68 -19.34 9.36 -19 8 C-17.2984375 7.62875 -17.2984375 7.62875 -15.5625 7.25 C-11.42184249 6.23144254 -7.72306673 4.63784022 -3.8828125 2.8046875 C-2 2 -2 2 0 2 C0 1.34 0 0.68 0 0 Z " fill="#232323" transform="translate(529,434)"/>
<path d="M0 0 C1 2 1 2 0.0625 5.125 C-0.288125 6.07375 -0.63875 7.0225 -1 8 C-1.99 7.67 -2.98 7.34 -4 7 C-4.4021875 8.11375 -4.4021875 8.11375 -4.8125 9.25 C-5.94229421 11.86636554 -7.20893202 13.80187111 -9 16 C-9.99 15.67 -10.98 15.34 -12 15 C-8.81183069 9.09598276 -5.69613424 3.79742282 0 0 Z " fill="#0F0F0F" transform="translate(410,467)"/>
<path d="M0 0 C0.99 0 1.98 0 3 0 C3 0.66 3 1.32 3 2 C4.65 2 6.3 2 8 2 C5.39204439 5.91193341 3.46552506 5.86469702 -1 7 C-2.67632417 7.64199649 -4.34750513 8.29894157 -6 9 C-4.4705003 5.55862568 -2.54630448 2.7777867 0 0 Z " fill="#212121" transform="translate(414,460)"/>
<path d="M0 0 C1 2 1 2 0.125 4.6875 C-0.24625 5.780625 -0.6175 6.87375 -1 8 C-1.37531446 10.32694964 -1.71917202 12.65976685 -2 15 C-2.33 15 -2.66 15 -3 15 C-3.33 13.35 -3.66 11.7 -4 10 C-4.99 10.495 -4.99 10.495 -6 11 C-5.77139942 9.53815942 -5.51629608 8.08044581 -5.25 6.625 C-5.11078125 5.81289063 -4.9715625 5.00078125 -4.828125 4.1640625 C-4 2 -4 2 -1.921875 0.7109375 C-1.28765625 0.47632813 -0.6534375 0.24171875 0 0 Z " fill="#282828" transform="translate(464,383)"/>
<path d="M0 0 C1.32 0.33 2.64 0.66 4 1 C4 1.66 4 2.32 4 3 C6.64 3.33 9.28 3.66 12 4 C12 4.99 12 5.98 12 7 C8.2064932 7.35288435 6.44058747 7.28393415 3.1875 5.1875 C1 3 1 3 0 0 Z " fill="#222222" transform="translate(406,474)"/>
<path d="M0 0 C0.99 0 1.98 0 3 0 C1.66666667 3.33333333 0.33333333 6.66666667 -1 10 C-2.32 10 -3.64 10 -5 10 C-5.99 10.495 -5.99 10.495 -7 11 C-5.78329471 8.2347607 -4.24570702 5.74946103 -2.5625 3.25 C-2.15128906 2.63640625 -1.74007813 2.0228125 -1.31640625 1.390625 C-0.88199219 0.93171875 -0.44757813 0.4728125 0 0 Z " fill="#232323" transform="translate(371,432)"/>
<path d="M0 0 C0.66 0.33 1.32 0.66 2 1 C1.33501617 5.38889325 -0.18757677 8.9811485 -2 13 C-2.99 13 -3.98 13 -5 13 C-4.54554036 11.58208592 -4.08625056 10.16571954 -3.625 8.75 C-3.24214844 7.56664062 -3.24214844 7.56664062 -2.8515625 6.359375 C-2.04826333 4.13372042 -1.10288338 2.09068328 0 0 Z " fill="#1D1D1D" transform="translate(531,513)"/>
<path d="M0 0 C0.33 0.99 0.66 1.98 1 3 C-0.14453125 4.82421875 -0.14453125 4.82421875 -1.8125 6.6875 C-2.35519531 7.31011719 -2.89789063 7.93273437 -3.45703125 8.57421875 C-5 10 -5 10 -7 10 C-6.42562214 6.12294944 -4.57271945 3.88456423 -2 1 C-1.34 0.67 -0.68 0.34 0 0 Z " fill="#171717" transform="translate(363,445)"/>
<path d="M0 0 C0.33 1.65 0.66 3.3 1 5 C1.99 5.33 2.98 5.66 4 6 C4 6.66 4 7.32 4 8 C-0.49652778 8.36458333 -0.49652778 8.36458333 -2.8125 6.6875 C-4 5 -4 5 -4 2 C-1 0 -1 0 0 0 Z " fill="#202020" transform="translate(382,459)"/>
<path d="M0 0 C0.99 0.33 1.98 0.66 3 1 C2.01 4.3 1.02 7.6 0 11 C-0.66 10.67 -1.32 10.34 -2 10 C-1.835 9.236875 -1.67 8.47375 -1.5 7.6875 C-0.90854604 4.96403764 -0.90854604 4.96403764 -1 2 C-0.67 1.34 -0.34 0.68 0 0 Z " fill="#111111" transform="translate(541,518)"/>
<path d="M0 0 C0.33 0 0.66 0 1 0 C0.38461538 6.52307692 0.38461538 6.52307692 -1.5625 8.9375 C-2.036875 9.288125 -2.51125 9.63875 -3 10 C-3.75 8.375 -3.75 8.375 -4 6 C-2.125 2.75 -2.125 2.75 0 0 Z " fill="#060606" transform="translate(480,391)"/>
<path d="M0 0 C2 1 2 1 3 3 C-0.3340947 5.19097652 -3.04179141 6.43454163 -7 7 C-4.66666667 4.66666667 -2.33333333 2.33333333 0 0 Z " fill="#1F1F1F" transform="translate(538,520)"/>
<path d="M0 0 C0.66 0.33 1.32 0.66 2 1 C0.515 2.485 0.515 2.485 -1 4 C-0.34 4.66 0.32 5.32 1 6 C-1.97 6 -4.94 6 -8 6 C-5.36435544 3.36435544 -3.27929831 1.68169144 0 0 Z " fill="#CBCBCB" transform="translate(509,437)"/>
<path d="M0 0 C2.3125 1.375 2.3125 1.375 3.125 3.5 C3.186875 4.11875 3.24875 4.7375 3.3125 5.375 C2.3225 5.375 1.3325 5.375 0.3125 5.375 C-0.3475 4.385 -1.0075 3.395 -1.6875 2.375 C-4.25032742 1.64534634 -4.25032742 1.64534634 -6.6875 1.375 C-4.08385497 -0.36076335 -3.11173473 -0.72365924 0 0 Z " fill="#292929" transform="translate(441.6875,471.625)"/>
<path d="M0 0 C0.268125 0.639375 0.53625 1.27875 0.8125 1.9375 C1.88667752 4.33131686 1.88667752 4.33131686 5 5 C5 5.66 5 6.32 5 7 C2.625 7.125 2.625 7.125 0 7 C-0.66 6.34 -1.32 5.68 -2 5 C-1.46428571 1.46428571 -1.46428571 1.46428571 0 0 Z " fill="#0E0E0E" transform="translate(394,466)"/>
<path d="M0 0 C0.66 0.66 1.32 1.32 2 2 C2.66 1.67 3.32 1.34 4 1 C3.67 2.32 3.34 3.64 3 5 C1.68 5.33 0.36 5.66 -1 6 C-1.625 4.125 -1.625 4.125 -2 2 C-1.34 1.34 -0.68 0.68 0 0 Z " fill="#0F0F0F" transform="translate(512,520)"/>
<path d="M0 0 C0.66 0.66 1.32 1.32 2 2 C2.66 1.67 3.32 1.34 4 1 C3.67 2.32 3.34 3.64 3 5 C1.68 5.33 0.36 5.66 -1 6 C-1.625 4.125 -1.625 4.125 -2 2 C-1.34 1.34 -0.68 0.68 0 0 Z " fill="#0F0F0F" transform="translate(486,508)"/>
<path d="M0 0 C0.33 0.66 0.66 1.32 1 2 C-0.98 4.97 -0.98 4.97 -3 8 C-3.99 7.67 -4.98 7.34 -6 7 C-4.19587357 3.73539027 -3.16605307 2.11070205 0 0 Z " fill="#191919" transform="translate(404,475)"/>
<path d="M0 0 C1.98 0 3.96 0 6 0 C5.34 1.32 4.68 2.64 4 4 C2.35 4 0.7 4 -1 4 C-0.67 2.68 -0.34 1.36 0 0 Z " fill="#1C1C1C" transform="translate(510,442)"/>
<path d="M0 0 C0.99 0 1.98 0 3 0 C3 0.66 3 1.32 3 2 C4.65 2 6.3 2 8 2 C8 2.33 8 2.66 8 3 C1.25 4 1.25 4 -1 4 C-1.99 4.495 -1.99 4.495 -3 5 C-1.125 1.125 -1.125 1.125 0 0 Z " fill="#484848" transform="translate(414,460)"/>
<path d="M0 0 C-0.33 0.99 -0.66 1.98 -1 3 C-3.31 3 -5.62 3 -8 3 C-8.33 2.34 -8.66 1.68 -9 1 C-5.92677456 0.08941469 -3.19902639 -0.08886184 0 0 Z " fill="#040404" transform="translate(510,443)"/>
<path d="M0 0 C1.32 0.33 2.64 0.66 4 1 C1.03 3.475 1.03 3.475 -2 6 C-2.66 5.67 -3.32 5.34 -4 5 C-2.68 3.35 -1.36 1.7 0 0 Z " fill="#141414" transform="translate(479,482)"/>
<path d="M0 0 C0.125 3.375 0.125 3.375 0 7 C-0.66 7.66 -1.32 8.32 -2 9 C-2 7.68 -2 6.36 -2 5 C-2.66 5 -3.32 5 -4 5 C-3.625 3.0625 -3.625 3.0625 -3 1 C-1 0 -1 0 0 0 Z " fill="#272727" transform="translate(533,398)"/>
</svg>
